<?xml version='1.0' encoding='UTF-8'?>
<!DOCTYPE svg PUBLIC "-//W3C//DTD SVG 1.1//EN" "http://www.w3.org/Graphics/SVG/1.1/DTD/svg11.dtd">
<!-- Generated by graphviz version 2.44.1 (20200629.0846)
 --><!-- Title: tests/test.yml  Pages: 1 --><svg xmlns="http://www.w3.org/2000/svg" xmlns:xlink="http://www.w3.org/1999/xlink" width="1442pt" height="1848pt" viewBox="0.00 0.00 1442.25 1848.30" id="svg">
<script type="text/javascript" href="https://ajax.googleapis.com/ajax/libs/jquery/3.2.1/jquery.min.js" id="jquery"/><script type="text/javascript" id="my_javascript"><![CDATA[const HOVER_CLASS = "my_hover";

var selectedElement = null;

function addClass(rootElement) {
    $(rootElement).find('link').each(function (index, element) {
        var target = $(element).attr('target');
        var currentElement = $('#' + target);
        currentElement.addClass(HOVER_CLASS);

        addClass(currentElement);
    })
}

function removeClass(rootElement, hover) {
    $(rootElement).find('link').each(function (index, element) {
        if ($(rootElement).attr('id') !== $(selectedElement).attr('id') || !hover) {
            var target = $(element).attr('target');
            var currentElement = $('#' + target);
            currentElement.removeClass(HOVER_CLASS);

            removeClass(currentElement);
        }

    })
}

function hoverIn(event) {
    addClass(event.currentTarget);
}

function hoverOut(event) {
    removeClass(event.currentTarget, true);
}

function clickOnElement(event) {
    var newElement = event.currentTarget;

    if ($(newElement).attr('id') === $(selectedElement).attr('id')) {
        removeClass(selectedElement, false);
    } else {
        removeClass(selectedElement);
        addClass(newElement)
    }

    selectedElement = newElement;
}


$("#svg").ready(function () {

    $("g[id^=play_]").hover(hoverIn, hoverOut);
    $("g[id^=role_]").hover(hoverIn, hoverOut);

    $("g[id^=play_]").click(clickOnElement);
    $("g[id^=role_]").click(clickOnElement);

});
]]></script><style type="text/css" id="my_css"><![CDATA[.node:hover, .edge:hover, path:hover, path + polygon:hover {
    cursor: pointer;
    stroke-width: 3;
    font-weight: bolder;
}

.my_hover {
    cursor: pointer;
    stroke-width: 3;
    font-weight: bolder;
}
]]></style><g id="graph0" class="graph" transform="scale(1 1) rotate(0) translate(4 1844.3)">
<title>tests/test.yml </title>
<polygon fill="white" stroke="transparent" points="-4,4 -4,-1844.3 1438.25,-1844.3 1438.25,4 -4,4"/>
<!-- tests/test.yml -->
<g id="root_node" class="node">
<title>tests/test.yml</title>
<ellipse fill="none" stroke="black" stroke-dasharray="1,5" cx="57.84" cy="-940.3" rx="57.69" ry="18"/>
<text text-anchor="middle" x="57.84" y="-936.6" font-family="Times,serif" font-size="14.00">tests/test.yml</text>
</g>
<!-- Play #1: localhost (1) -->
<g id="play_71035735-526e-441f-aa99-e25db2065a2d" class="node">
<title>Play #1: localhost (1)</title>
<g id="a_play_71035735-526e-441f-aa99-e25db2065a2d"><a xlink:title="127.0.0.1">
<polygon fill="#43013c" stroke="#43013c" points="292.69,-958.3 158.69,-958.3 158.69,-922.3 292.69,-922.3 292.69,-958.3"/>
<text text-anchor="middle" x="225.69" y="-936.6" font-family="Times,serif" font-size="14.00" fill="#ffffff">Play #1: localhost (1)</text>
</a>
</g>
<links><link target="edge_24f71652-8306-4a91-ab46-d8ae7836273a"/><link target="edge_a91161ed-57bd-4336-87ec-f405bdf465da"/><link target="edge_df3a52af-df1c-4c0b-b93a-e86d9c9c0956"/><link target="edge_32643327-95c5-4c2b-b901-5e8815f8b06d"/><link target="edge_b7f48af7-7989-4956-9a79-d69511d399e3"/><link target="edge_7fe82711-ecef-4dc9-a2b5-0bd705fd1cda"/><link target="edge_2c8d0299-95e3-42c4-9ecf-510b18ff240e"/><link target="edge_b0352a46-7670-419b-8266-881359fa9ede"/><link target="edge_7059c743-c735-4d12-9122-b7cd25143a42"/><link target="edge_4f6e221c-036f-482b-a6b5-249d0445ab36"/><link target="edge_1ee28d0f-a1d4-498b-a458-924affc1cac3"/><link target="edge_d0a0affa-3f00-4d81-be9d-18915a403781"/><link target="edge_74305d28-f65f-4b0d-bfe0-1fb9bb8c255d"/><link target="edge_bc56a381-2c51-4485-a0be-2628f186776a"/><link target="edge_d6101ade-b1b2-4b7c-855d-3abaaa451f23"/><link target="edge_424b1c87-e29b-4aa3-b9b4-03a110d5fef8"/><link target="edge_0a7c5671-e23b-43af-b7f0-d1cca1fe5b06"/><link target="edge_c8ee965a-03c2-4e2d-9ab4-64961002ef1c"/><link target="edge_afe4ec55-661e-4cfa-8213-41bf81c30bbc"/><link target="edge_76087622-732e-4d73-8a5f-8d684121e98f"/><link target="edge_1367555b-0ad1-4d7c-8a3b-0c8a8c5fd80b"/><link target="edge_a3e1c125-e34f-4db5-b96c-b1ffe48ea2ff"/><link target="edge_23175d58-48f1-4cb5-950b-dc84ac67da76"/><link target="edge_9b95d030-2758-48db-a726-da76ffbf2ae9"/><link target="edge_ba9ddae5-484f-4239-9929-a9c7011649cf"/><link target="edge_661879aa-531b-47a5-a776-930bf3175a85"/><link target="edge_2cc26332-8daa-4643-ad2c-980582783cd8"/><link target="edge_3c497d9a-3994-4792-88ac-eeccebda1bfd"/><link target="edge_d8331071-a90f-4112-abb5-a1c29a410ec3"/><link target="edge_49d16633-802a-4e5d-80df-7ff7c3429ef4"/><link target="edge_07b88c86-34dc-4dcd-b321-d0f564142700"/><link target="edge_3d0d748a-9ffc-4536-a33c-63c9f1c822ea"/><link target="edge_52fd5b21-b3dd-49e7-86c2-e9e670b8ead9"/></links></g>
<!-- tests/test.yml&#45;&gt;Play #1: localhost (1) -->
<g id="edge_3cd2c9e6-b824-41fe-b57b-065789cf1823" class="edge">
<title>tests/test.yml-&gt;Play #1: localhost (1)</title>
<path fill="none" stroke="#43013c" stroke-width="2" d="M115.92,-940.3C126.46,-940.3 137.63,-940.3 148.63,-940.3"/>
<polygon fill="#43013c" stroke="#43013c" stroke-width="2" points="148.67,-943.8 158.67,-940.3 148.67,-936.8 148.67,-943.8"/>
<text text-anchor="middle" x="137.19" y="-944.1" font-family="Times,serif" font-size="14.00" fill="#43013c">1</text>
</g>
<!-- task_0035c2ea&#45;fa0f&#45;42c3&#45;82e7&#45;1f9a929ace23 -->
<g id="task_0035c2ea-fa0f-42c3-82e7-1f9a929ace23" class="node">
<title>task_0035c2ea-fa0f-42c3-82e7-1f9a929ace23</title>
<polygon fill="none" stroke="black" points="1155.87,-1796.85 1155.87,-1811.76 1073.33,-1822.3 956.61,-1822.3 874.07,-1811.76 874.07,-1796.85 956.61,-1786.3 1073.33,-1786.3 1155.87,-1796.85"/>
<text text-anchor="middle" x="1014.97" y="-1800.6" font-family="Times,serif" font-size="14.00">[task] ensure we are using ubuntu</text>
</g>
<!-- Play #1: localhost (1)&#45;&gt;task_0035c2ea&#45;fa0f&#45;42c3&#45;82e7&#45;1f9a929ace23 -->
<g id="edge_24f71652-8306-4a91-ab46-d8ae7836273a" class="edge">
<title>Play #1: localhost (1)-&gt;task_0035c2ea-fa0f-42c3-82e7-1f9a929ace23</title>
<path fill="none" stroke="#43013c" stroke-width="2" d="M227.15,-958.47C230.25,-1074.55 249.95,-1709.45 310.69,-1767.3 391.17,-1843.96 712.07,-1830.4 891.29,-1816.1"/>
<polygon fill="#43013c" stroke="#43013c" stroke-width="2" points="891.62,-1819.58 901.3,-1815.29 891.05,-1812.6 891.62,-1819.58"/>
<text text-anchor="middle" x="444.19" y="-1829.1" font-family="Times,serif" font-size="14.00" fill="#43013c">1  [when: not ansible_distribution == "Ubuntu"]</text>
<links><link target="task_0035c2ea-fa0f-42c3-82e7-1f9a929ace23"/></links></g>
<!-- task_b282a770&#45;1ff4&#45;4ff0&#45;a445&#45;3cba0e15c72d -->
<g id="task_b282a770-1ff4-4ff0-a445-3cba0e15c72d" class="node">
<title>task_b282a770-1ff4-4ff0-a445-3cba0e15c72d</title>
<polygon fill="none" stroke="black" points="1219.9,-1742.85 1219.9,-1757.76 1099.86,-1768.3 930.09,-1768.3 810.04,-1757.76 810.04,-1742.85 930.09,-1732.3 1099.86,-1732.3 1219.9,-1742.85"/>
<text text-anchor="middle" x="1014.97" y="-1746.6" font-family="Times,serif" font-size="14.00">[task] ensure we are using the x86_64 architecture</text>
</g>
<!-- Play #1: localhost (1)&#45;&gt;task_b282a770&#45;1ff4&#45;4ff0&#45;a445&#45;3cba0e15c72d -->
<g id="edge_a91161ed-57bd-4336-87ec-f405bdf465da" class="edge">
<title>Play #1: localhost (1)-&gt;task_b282a770-1ff4-4ff0-a445-3cba0e15c72d</title>
<path fill="none" stroke="#43013c" stroke-width="2" d="M227.28,-958.35C231.09,-1069.63 253.87,-1659.56 310.69,-1713.3 345.83,-1746.54 606.27,-1752.83 800.03,-1752.78"/>
<polygon fill="#43013c" stroke="#43013c" stroke-width="2" points="800.08,-1756.28 810.07,-1752.77 800.07,-1749.28 800.08,-1756.28"/>
<text text-anchor="middle" x="444.19" y="-1752.1" font-family="Times,serif" font-size="14.00" fill="#43013c">2  [when: not ansible_architecture == "x86_64"]</text>
<links><link target="task_b282a770-1ff4-4ff0-a445-3cba0e15c72d"/></links></g>
<!-- task_a8eb5fb6&#45;cedb&#45;41aa&#45;99c3&#45;7b340467a69c -->
<g id="task_a8eb5fb6-cedb-41aa-99c3-7b340467a69c" class="node">
<title>task_a8eb5fb6-cedb-41aa-99c3-7b340467a69c</title>
<polygon fill="none" stroke="black" points="1119.61,-1688.85 1119.61,-1703.76 1058.32,-1714.3 971.63,-1714.3 910.33,-1703.76 910.33,-1688.85 971.63,-1678.3 1058.32,-1678.3 1119.61,-1688.85"/>
<text text-anchor="middle" x="1014.97" y="-1692.6" font-family="Times,serif" font-size="14.00">[task] stat docker socket</text>
</g>
<!-- Play #1: localhost (1)&#45;&gt;task_a8eb5fb6&#45;cedb&#45;41aa&#45;99c3&#45;7b340467a69c -->
<g id="edge_df3a52af-df1c-4c0b-b93a-e86d9c9c0956" class="edge">
<title>Play #1: localhost (1)-&gt;task_a8eb5fb6-cedb-41aa-99c3-7b340467a69c</title>
<path fill="none" stroke="#43013c" stroke-width="2" d="M227.44,-958.46C232.01,-1065.36 257.82,-1609.7 310.69,-1659.3 352.58,-1698.61 711.92,-1700.15 900.09,-1698.18"/>
<polygon fill="#43013c" stroke="#43013c" stroke-width="2" points="900.34,-1701.68 910.3,-1698.07 900.26,-1694.68 900.34,-1701.68"/>
<text text-anchor="middle" x="444.19" y="-1698.1" font-family="Times,serif" font-size="14.00" fill="#43013c">3</text>
<links><link target="task_a8eb5fb6-cedb-41aa-99c3-7b340467a69c"/></links></g>
<!-- task_bee72a34&#45;30ef&#45;4073&#45;9bcf&#45;54a68646a75f -->
<g id="task_bee72a34-30ef-4073-9bcf-54a68646a75f" class="node">
<title>task_bee72a34-30ef-4073-9bcf-54a68646a75f</title>
<polygon fill="none" stroke="black" points="1174.86,-1634.85 1174.86,-1649.76 1081.2,-1660.3 948.74,-1660.3 855.09,-1649.76 855.09,-1634.85 948.74,-1624.3 1081.2,-1624.3 1174.86,-1634.85"/>
<text text-anchor="middle" x="1014.97" y="-1638.6" font-family="Times,serif" font-size="14.00">[task] fail if docker rootful is available</text>
</g>
<!-- Play #1: localhost (1)&#45;&gt;task_bee72a34&#45;30ef&#45;4073&#45;9bcf&#45;54a68646a75f -->
<g id="edge_32643327-95c5-4c2b-b901-5e8815f8b06d" class="edge">
<title>Play #1: localhost (1)-&gt;task_bee72a34-30ef-4073-9bcf-54a68646a75f</title>
<path fill="none" stroke="#43013c" stroke-width="2" d="M227.61,-958.41C232.99,-1060.36 261.73,-1559.8 310.69,-1605.3 348.93,-1640.84 649.13,-1645.43 844.77,-1644.55"/>
<polygon fill="#43013c" stroke="#43013c" stroke-width="2" points="844.89,-1648.05 854.88,-1644.5 844.86,-1641.05 844.89,-1648.05"/>
<text text-anchor="middle" x="444.19" y="-1644.1" font-family="Times,serif" font-size="14.00" fill="#43013c">4  [when: docker_socket.stat.exists]</text>
<links><link target="task_bee72a34-30ef-4073-9bcf-54a68646a75f"/></links></g>
<!-- task_f624c88e&#45;78fa&#45;4838&#45;b915&#45;273d53d53768 -->
<g id="task_f624c88e-78fa-4838-b915-273d53d53768" class="node">
<title>task_f624c88e-78fa-4838-b915-273d53d53768</title>
<polygon fill="none" stroke="black" points="1090.02,-1580.85 1090.02,-1595.76 1046.06,-1606.3 983.89,-1606.3 939.92,-1595.76 939.92,-1580.85 983.89,-1570.3 1046.06,-1570.3 1090.02,-1580.85"/>
<text text-anchor="middle" x="1014.97" y="-1584.6" font-family="Times,serif" font-size="14.00">[task] apt update</text>
</g>
<!-- Play #1: localhost (1)&#45;&gt;task_f624c88e&#45;78fa&#45;4838&#45;b915&#45;273d53d53768 -->
<g id="edge_b7f48af7-7989-4956-9a79-d69511d399e3" class="edge">
<title>Play #1: localhost (1)-&gt;task_f624c88e-78fa-4838-b915-273d53d53768</title>
<path fill="none" stroke="#43013c" stroke-width="2" d="M227.83,-958.54C234.07,-1055.82 265.56,-1510.87 310.69,-1552.3 355.33,-1593.29 752.7,-1592.38 929.63,-1589.89"/>
<polygon fill="#43013c" stroke="#43013c" stroke-width="2" points="929.74,-1593.39 939.68,-1589.74 929.63,-1586.39 929.74,-1593.39"/>
<text text-anchor="middle" x="444.19" y="-1590.1" font-family="Times,serif" font-size="14.00" fill="#43013c">5</text>
<links><link target="task_f624c88e-78fa-4838-b915-273d53d53768"/></links></g>
<!-- task_c1749e44&#45;86b6&#45;4e3b&#45;af8f&#45;8a8f6aadf9b3 -->
<g id="task_c1749e44-86b6-4e3b-af8f-8a8f6aadf9b3" class="node">
<title>task_c1749e44-86b6-4e3b-af8f-8a8f6aadf9b3</title>
<polygon fill="none" stroke="black" points="1145.67,-1526.85 1145.67,-1541.76 1069.11,-1552.3 960.83,-1552.3 884.27,-1541.76 884.27,-1526.85 960.83,-1516.3 1069.11,-1516.3 1145.67,-1526.85"/>
<text text-anchor="middle" x="1014.97" y="-1530.6" font-family="Times,serif" font-size="14.00">[task] install required packages</text>
</g>
<!-- Play #1: localhost (1)&#45;&gt;task_c1749e44&#45;86b6&#45;4e3b&#45;af8f&#45;8a8f6aadf9b3 -->
<g id="edge_7fe82711-ecef-4dc9-a2b5-0bd705fd1cda" class="edge">
<title>Play #1: localhost (1)-&gt;task_c1749e44-86b6-4e3b-af8f-8a8f6aadf9b3</title>
<path fill="none" stroke="#43013c" stroke-width="2" d="M226.49,-958.5C225.91,-1046.4 228.29,-1425.8 310.69,-1500.3 351.36,-1537.08 680.46,-1539.01 873.72,-1536.87"/>
<polygon fill="#43013c" stroke="#43013c" stroke-width="2" points="874.01,-1540.37 883.97,-1536.75 873.93,-1533.37 874.01,-1540.37"/>
<text text-anchor="middle" x="444.19" y="-1537.1" font-family="Times,serif" font-size="14.00" fill="#43013c">6</text>
<links><link target="task_c1749e44-86b6-4e3b-af8f-8a8f6aadf9b3"/></links></g>
<!-- task_623d51d9&#45;f432&#45;48b9&#45;9e98&#45;7b8fb09b9926 -->
<g id="task_623d51d9-f432-48b9-9e98-7b8fb09b9926" class="node">
<title>task_623d51d9-f432-48b9-9e98-7b8fb09b9926</title>
<polygon fill="none" stroke="black" points="1164.66,-1472.85 1164.66,-1487.76 1076.97,-1498.3 952.97,-1498.3 865.28,-1487.76 865.28,-1472.85 952.97,-1462.3 1076.97,-1462.3 1164.66,-1472.85"/>
<text text-anchor="middle" x="1014.97" y="-1476.6" font-family="Times,serif" font-size="14.00">[task] add user "{{ docker_user }}"</text>
</g>
<!-- Play #1: localhost (1)&#45;&gt;task_623d51d9&#45;f432&#45;48b9&#45;9e98&#45;7b8fb09b9926 -->
<g id="edge_2c8d0299-95e3-42c4-9ecf-510b18ff240e" class="edge">
<title>Play #1: localhost (1)-&gt;task_623d51d9-f432-48b9-9e98-7b8fb09b9926</title>
<path fill="none" stroke="#43013c" stroke-width="2" d="M226.78,-958.46C227.63,-1041.23 235.66,-1381.67 310.69,-1448.3 350.38,-1483.55 660.09,-1485.7 855.05,-1483.44"/>
<polygon fill="#43013c" stroke="#43013c" stroke-width="2" points="855.16,-1486.93 865.12,-1483.31 855.07,-1479.93 855.16,-1486.93"/>
<text text-anchor="middle" x="444.19" y="-1485.1" font-family="Times,serif" font-size="14.00" fill="#43013c">7</text>
<links><link target="task_623d51d9-f432-48b9-9e98-7b8fb09b9926"/></links></g>
<!-- task_dbc16b32&#45;ae55&#45;42c1&#45;8f14&#45;4e6678769b5f -->
<g id="task_dbc16b32-ae55-42c1-8f14-4e6678769b5f" class="node">
<title>task_dbc16b32-ae55-42c1-8f14-4e6678769b5f</title>
<polygon fill="none" stroke="black" points="1203.54,-1418.85 1203.54,-1433.76 1093.08,-1444.3 936.86,-1444.3 826.4,-1433.76 826.4,-1418.85 936.86,-1408.3 1093.08,-1408.3 1203.54,-1418.85"/>
<text text-anchor="middle" x="1014.97" y="-1422.6" font-family="Times,serif" font-size="14.00">[task] ensure "{{ docker_user }}" is lingering</text>
</g>
<!-- Play #1: localhost (1)&#45;&gt;task_dbc16b32&#45;ae55&#45;42c1&#45;8f14&#45;4e6678769b5f -->
<g id="edge_b0352a46-7670-419b-8266-881359fa9ede" class="edge">
<title>Play #1: localhost (1)-&gt;task_dbc16b32-ae55-42c1-8f14-4e6678769b5f</title>
<path fill="none" stroke="#43013c" stroke-width="2" d="M227.13,-958.49C229.43,-1036.22 242.68,-1339.3 310.69,-1398.3 348.2,-1430.84 621.62,-1433.35 816.24,-1430.84"/>
<polygon fill="#43013c" stroke="#43013c" stroke-width="2" points="816.36,-1434.34 826.31,-1430.71 816.27,-1427.34 816.36,-1434.34"/>
<text text-anchor="middle" x="444.19" y="-1433.1" font-family="Times,serif" font-size="14.00" fill="#43013c">8</text>
<links><link target="task_dbc16b32-ae55-42c1-8f14-4e6678769b5f"/></links></g>
<!-- task_442228cf&#45;b768&#45;4bc7&#45;aaea&#45;e0ac34a4abd4 -->
<g id="task_442228cf-b768-4bc7-aaea-e0ac34a4abd4" class="node">
<title>task_442228cf-b768-4bc7-aaea-e0ac34a4abd4</title>
<polygon fill="none" stroke="black" points="1208.39,-1364.85 1208.39,-1379.76 1095.09,-1390.3 934.85,-1390.3 821.55,-1379.76 821.55,-1364.85 934.85,-1354.3 1095.09,-1354.3 1208.39,-1364.85"/>
<text text-anchor="middle" x="1014.97" y="-1368.6" font-family="Times,serif" font-size="14.00">[task] enable lingering for "{{ docker_user }}"</text>
</g>
<!-- Play #1: localhost (1)&#45;&gt;task_442228cf&#45;b768&#45;4bc7&#45;aaea&#45;e0ac34a4abd4 -->
<g id="edge_7059c743-c735-4d12-9122-b7cd25143a42" class="edge">
<title>Play #1: localhost (1)-&gt;task_442228cf-b768-4bc7-aaea-e0ac34a4abd4</title>
<path fill="none" stroke="#43013c" stroke-width="2" d="M227.55,-958.79C231.38,-1031.82 249.42,-1298.7 310.69,-1350.3 348.31,-1381.99 617.01,-1382.51 811.11,-1378.54"/>
<polygon fill="#43013c" stroke="#43013c" stroke-width="2" points="811.24,-1382.04 821.16,-1378.33 811.09,-1375.04 811.24,-1382.04"/>
<text text-anchor="middle" x="444.19" y="-1383.1" font-family="Times,serif" font-size="14.00" fill="#43013c">9  [when: not docker_user_lingering.stat.exists]</text>
<links><link target="task_442228cf-b768-4bc7-aaea-e0ac34a4abd4"/></links></g>
<!-- task_c87bd4b0&#45;bb0d&#45;472a&#45;a931&#45;69411f2372bd -->
<g id="task_c87bd4b0-bb0d-472a-a931-69411f2372bd" class="node">
<title>task_c87bd4b0-bb0d-472a-a931-69411f2372bd</title>
<polygon fill="none" stroke="black" points="1216.37,-1310.85 1216.37,-1325.76 1098.39,-1336.3 931.55,-1336.3 813.57,-1325.76 813.57,-1310.85 931.55,-1300.3 1098.39,-1300.3 1216.37,-1310.85"/>
<text text-anchor="middle" x="1014.97" y="-1314.6" font-family="Times,serif" font-size="14.00">[task] create "{{ docker_user }}" ansible tmp dir</text>
</g>
<!-- Play #1: localhost (1)&#45;&gt;task_c87bd4b0&#45;bb0d&#45;472a&#45;a931&#45;69411f2372bd -->
<g id="edge_4f6e221c-036f-482b-a6b5-249d0445ab36" class="edge">
<title>Play #1: localhost (1)-&gt;task_c87bd4b0-bb0d-472a-a931-69411f2372bd</title>
<path fill="none" stroke="#43013c" stroke-width="2" d="M228.42,-958.59C234.9,-1022.94 260.02,-1237.34 310.69,-1279.3 390.13,-1345.09 670.23,-1341.11 852.06,-1330.75"/>
<polygon fill="#43013c" stroke="#43013c" stroke-width="2" points="852.49,-1334.23 862.27,-1330.15 852.08,-1327.24 852.49,-1334.23"/>
<text text-anchor="middle" x="444.19" y="-1338.1" font-family="Times,serif" font-size="14.00" fill="#43013c">10</text>
<links><link target="task_c87bd4b0-bb0d-472a-a931-69411f2372bd"/></links></g>
<!-- task_64c0b0a6&#45;6654&#45;4fde&#45;a4e4&#45;f0957cbda6ea -->
<g id="task_64c0b0a6-6654-4fde-a4e4-f0957cbda6ea" class="node">
<title>task_64c0b0a6-6654-4fde-a4e4-f0957cbda6ea</title>
<polygon fill="none" stroke="black" points="1123.15,-1256.85 1123.15,-1271.76 1059.78,-1282.3 970.16,-1282.3 906.8,-1271.76 906.8,-1256.85 970.16,-1246.3 1059.78,-1246.3 1123.15,-1256.85"/>
<text text-anchor="middle" x="1014.97" y="-1260.6" font-family="Times,serif" font-size="14.00">[task] install python3-pip</text>
</g>
<!-- Play #1: localhost (1)&#45;&gt;task_64c0b0a6&#45;6654&#45;4fde&#45;a4e4&#45;f0957cbda6ea -->
<g id="edge_1ee28d0f-a1d4-498b-a458-924affc1cac3" class="edge">
<title>Play #1: localhost (1)-&gt;task_64c0b0a6-6654-4fde-a4e4-f0957cbda6ea</title>
<path fill="none" stroke="#43013c" stroke-width="2" d="M229.26,-958.63C237.78,-1016.54 267.08,-1193.82 310.69,-1228.3 355.39,-1263.65 708.01,-1266.61 896.33,-1265.6"/>
<polygon fill="#43013c" stroke="#43013c" stroke-width="2" points="896.58,-1269.1 906.56,-1265.54 896.54,-1262.1 896.58,-1269.1"/>
<text text-anchor="middle" x="444.19" y="-1264.1" font-family="Times,serif" font-size="14.00" fill="#43013c">11</text>
<links><link target="task_64c0b0a6-6654-4fde-a4e4-f0957cbda6ea"/></links></g>
<!-- task_897d6663&#45;bd4f&#45;45c2&#45;bb90&#45;a8a833f41282 -->
<g id="task_897d6663-bd4f-45c2-bb90-a8a833f41282" class="node">
<title>task_897d6663-bd4f-45c2-bb90-a8a833f41282</title>
<polygon fill="none" stroke="black" points="1149.21,-1202.85 1149.21,-1217.76 1070.57,-1228.3 959.37,-1228.3 880.74,-1217.76 880.74,-1202.85 959.37,-1192.3 1070.57,-1192.3 1149.21,-1202.85"/>
<text text-anchor="middle" x="1014.97" y="-1206.6" font-family="Times,serif" font-size="14.00">[task] install python3-setuptools</text>
</g>
<!-- Play #1: localhost (1)&#45;&gt;task_897d6663&#45;bd4f&#45;45c2&#45;bb90&#45;a8a833f41282 -->
<g id="edge_d0a0affa-3f00-4d81-be9d-18915a403781" class="edge">
<title>Play #1: localhost (1)-&gt;task_897d6663-bd4f-45c2-bb90-a8a833f41282</title>
<path fill="none" stroke="#43013c" stroke-width="2" d="M226.74,-958.58C227.98,-1004.64 238.29,-1125.57 310.69,-1179.3 354.38,-1211.73 677.54,-1214.04 870.26,-1212.45"/>
<polygon fill="#43013c" stroke="#43013c" stroke-width="2" points="870.51,-1215.95 880.48,-1212.36 870.45,-1208.95 870.51,-1215.95"/>
<text text-anchor="middle" x="444.19" y="-1213.1" font-family="Times,serif" font-size="14.00" fill="#43013c">12</text>
<links><link target="task_897d6663-bd4f-45c2-bb90-a8a833f41282"/></links></g>
<!-- task_7f3e3dcc&#45;4519&#45;43b9&#45;be12&#45;f3c6218d68ad -->
<g id="task_7f3e3dcc-4519-43b9-be12-f3c6218d68ad" class="node">
<title>task_7f3e3dcc-4519-43b9-be12-f3c6218d68ad</title>
<polygon fill="none" stroke="black" points="1136.88,-1148.85 1136.88,-1163.76 1065.47,-1174.3 964.48,-1174.3 893.06,-1163.76 893.06,-1148.85 964.48,-1138.3 1065.47,-1138.3 1136.88,-1148.85"/>
<text text-anchor="middle" x="1014.97" y="-1152.6" font-family="Times,serif" font-size="14.00">[task] install python3 docker</text>
</g>
<!-- Play #1: localhost (1)&#45;&gt;task_7f3e3dcc&#45;4519&#45;43b9&#45;be12&#45;f3c6218d68ad -->
<g id="edge_74305d28-f65f-4b0d-bfe0-1fb9bb8c255d" class="edge">
<title>Play #1: localhost (1)-&gt;task_7f3e3dcc-4519-43b9-be12-f3c6218d68ad</title>
<path fill="none" stroke="#43013c" stroke-width="2" d="M228.31,-958.47C232.94,-998.33 250.12,-1093.16 310.69,-1134.3 356.66,-1165.54 692.71,-1163.48 883.16,-1159.68"/>
<polygon fill="#43013c" stroke="#43013c" stroke-width="2" points="883.31,-1163.18 893.24,-1159.48 883.17,-1156.18 883.31,-1163.18"/>
<text text-anchor="middle" x="444.19" y="-1164.1" font-family="Times,serif" font-size="14.00" fill="#43013c">13</text>
<links><link target="task_7f3e3dcc-4519-43b9-be12-f3c6218d68ad"/></links></g>
<!-- task_2b302e54&#45;1aca&#45;4c85&#45;989e&#45;dcce836fa5e1 -->
<g id="task_2b302e54-1aca-4c85-989e-dcce836fa5e1" class="node">
<title>task_2b302e54-1aca-4c85-989e-dcce836fa5e1</title>
<polygon fill="none" stroke="black" points="1211.93,-1094.85 1211.93,-1109.76 1096.55,-1120.3 933.39,-1120.3 818.02,-1109.76 818.02,-1094.85 933.39,-1084.3 1096.55,-1084.3 1211.93,-1094.85"/>
<text text-anchor="middle" x="1014.97" y="-1098.6" font-family="Times,serif" font-size="14.00">[task] create "{{ docker_user }}" docker bin dir</text>
</g>
<!-- Play #1: localhost (1)&#45;&gt;task_2b302e54&#45;1aca&#45;4c85&#45;989e&#45;dcce836fa5e1 -->
<g id="edge_bc56a381-2c51-4485-a0be-2628f186776a" class="edge">
<title>Play #1: localhost (1)-&gt;task_2b302e54-1aca-4c85-989e-dcce836fa5e1</title>
<path fill="none" stroke="#43013c" stroke-width="2" d="M231.78,-958.44C241.43,-989.01 265.6,-1050.05 310.69,-1076.3 398.32,-1127.32 667.98,-1123.11 846.77,-1113.84"/>
<polygon fill="#43013c" stroke="#43013c" stroke-width="2" points="847.01,-1117.34 856.81,-1113.31 846.64,-1110.35 847.01,-1117.34"/>
<text text-anchor="middle" x="444.19" y="-1121.1" font-family="Times,serif" font-size="14.00" fill="#43013c">14</text>
<links><link target="task_2b302e54-1aca-4c85-989e-dcce836fa5e1"/></links></g>
<!-- task_d997d2d1&#45;3529&#45;47ff&#45;9516&#45;307348bac1ff -->
<g id="task_d997d2d1-3529-47ff-9516-307348bac1ff" class="node">
<title>task_d997d2d1-3529-47ff-9516-307348bac1ff</title>
<polygon fill="none" stroke="black" points="1229.6,-1040.85 1229.6,-1055.76 1103.87,-1066.3 926.07,-1066.3 800.34,-1055.76 800.34,-1040.85 926.07,-1030.3 1103.87,-1030.3 1229.6,-1040.85"/>
<text text-anchor="middle" x="1014.97" y="-1044.6" font-family="Times,serif" font-size="14.00">[task] create "{{ docker_user }}" systemd config dir</text>
</g>
<!-- Play #1: localhost (1)&#45;&gt;task_d997d2d1&#45;3529&#45;47ff&#45;9516&#45;307348bac1ff -->
<g id="edge_d6101ade-b1b2-4b7c-855d-3abaaa451f23" class="edge">
<title>Play #1: localhost (1)-&gt;task_d997d2d1-3529-47ff-9516-307348bac1ff</title>
<path fill="none" stroke="#43013c" stroke-width="2" d="M244.84,-958.58C260.71,-973.27 285.16,-992.95 310.69,-1002.3 492.03,-1068.74 717.1,-1070.74 863.04,-1062.51"/>
<polygon fill="#43013c" stroke="#43013c" stroke-width="2" points="863.64,-1065.98 873.41,-1061.9 863.22,-1058.99 863.64,-1065.98"/>
<text text-anchor="middle" x="444.19" y="-1061.1" font-family="Times,serif" font-size="14.00" fill="#43013c">15</text>
<links><link target="task_d997d2d1-3529-47ff-9516-307348bac1ff"/></links></g>
<!-- task_fd449fd1&#45;dd52&#45;4fd3&#45;9708&#45;e20517bbadb9 -->
<g id="task_fd449fd1-dd52-4fd3-9708-e20517bbadb9" class="node">
<title>task_fd449fd1-dd52-4fd3-9708-e20517bbadb9</title>
<polygon fill="none" stroke="black" points="1215.46,-986.85 1215.46,-1001.76 1098.02,-1012.3 931.93,-1012.3 814.48,-1001.76 814.48,-986.85 931.93,-976.3 1098.02,-976.3 1215.46,-986.85"/>
<text text-anchor="middle" x="1014.97" y="-990.6" font-family="Times,serif" font-size="14.00">[task] download docker-{{ docker_release }}.tgz</text>
</g>
<!-- Play #1: localhost (1)&#45;&gt;task_fd449fd1&#45;dd52&#45;4fd3&#45;9708&#45;e20517bbadb9 -->
<g id="edge_424b1c87-e29b-4aa3-b9b4-03a110d5fef8" class="edge">
<title>Play #1: localhost (1)-&gt;task_fd449fd1-dd52-4fd3-9708-e20517bbadb9</title>
<path fill="none" stroke="#43013c" stroke-width="2" d="M292.98,-956.41C298.95,-957.52 304.91,-958.51 310.69,-959.3 475.54,-981.88 663.9,-990.34 804.17,-993.32"/>
<polygon fill="#43013c" stroke="#43013c" stroke-width="2" points="804.12,-996.82 814.19,-993.52 804.26,-989.82 804.12,-996.82"/>
<text text-anchor="middle" x="444.19" y="-987.1" font-family="Times,serif" font-size="14.00" fill="#43013c">16</text>
<links><link target="task_fd449fd1-dd52-4fd3-9708-e20517bbadb9"/></links></g>
<!-- task_a663e73c&#45;904a&#45;4875&#45;b222&#45;7ecdb3db5d0b -->
<g id="task_a663e73c-904a-4875-b222-7ecdb3db5d0b" class="node">
<title>task_a663e73c-904a-4875-b222-7ecdb3db5d0b</title>
<polygon fill="none" stroke="black" points="1273.74,-932.85 1273.74,-947.76 1122.16,-958.3 907.79,-958.3 756.2,-947.76 756.2,-932.85 907.79,-922.3 1122.16,-922.3 1273.74,-932.85"/>
<text text-anchor="middle" x="1014.97" y="-936.6" font-family="Times,serif" font-size="14.00">[task] download docker-rootless-extras-{{ docker_release }}.tgz</text>
</g>
<!-- Play #1: localhost (1)&#45;&gt;task_a663e73c&#45;904a&#45;4875&#45;b222&#45;7ecdb3db5d0b -->
<g id="edge_0a7c5671-e23b-43af-b7f0-d1cca1fe5b06" class="edge">
<title>Play #1: localhost (1)-&gt;task_a663e73c-904a-4875-b222-7ecdb3db5d0b</title>
<path fill="none" stroke="#43013c" stroke-width="2" d="M292.8,-940.3C391.95,-940.3 584.78,-940.3 746.11,-940.3"/>
<polygon fill="#43013c" stroke="#43013c" stroke-width="2" points="746.2,-943.8 756.2,-940.3 746.2,-936.8 746.2,-943.8"/>
<text text-anchor="middle" x="444.19" y="-944.1" font-family="Times,serif" font-size="14.00" fill="#43013c">17</text>
<links><link target="task_a663e73c-904a-4875-b222-7ecdb3db5d0b"/></links></g>
<!-- task_98414647&#45;6349&#45;47c9&#45;a804&#45;0fc1f3aebd08 -->
<g id="task_98414647-6349-47c9-a804-0fc1f3aebd08" class="node">
<title>task_98414647-6349-47c9-a804-0fc1f3aebd08</title>
<polygon fill="none" stroke="black" points="1375.75,-878.85 1375.75,-893.76 1164.41,-904.3 865.53,-904.3 654.19,-893.76 654.19,-878.85 865.53,-868.3 1164.41,-868.3 1375.75,-878.85"/>
<text text-anchor="middle" x="1014.97" y="-882.6" font-family="Times,serif" font-size="14.00">[task] extract docker-{{ docker_release }}.tgz into {{ docker_user_registered.home }}/bin</text>
</g>
<!-- Play #1: localhost (1)&#45;&gt;task_98414647&#45;6349&#45;47c9&#45;a804&#45;0fc1f3aebd08 -->
<g id="edge_c8ee965a-03c2-4e2d-9ab4-64961002ef1c" class="edge">
<title>Play #1: localhost (1)-&gt;task_98414647-6349-47c9-a804-0fc1f3aebd08</title>
<path fill="none" stroke="#43013c" stroke-width="2" d="M292.98,-924.2C298.95,-923.09 304.91,-922.1 310.69,-921.3 418.45,-906.55 536.26,-897.82 644.11,-892.71"/>
<polygon fill="#43013c" stroke="#43013c" stroke-width="2" points="644.35,-896.21 654.18,-892.25 644.03,-889.21 644.35,-896.21"/>
<text text-anchor="middle" x="444.19" y="-925.1" font-family="Times,serif" font-size="14.00" fill="#43013c">18</text>
<links><link target="task_98414647-6349-47c9-a804-0fc1f3aebd08"/></links></g>
<!-- task_b4a76694&#45;6c0f&#45;4a1f&#45;b13b&#45;d1a0db02dda3 -->
<g id="task_b4a76694-6c0f-4a1f-b13b-d1a0db02dda3" class="node">
<title>task_b4a76694-6c0f-4a1f-b13b-d1a0db02dda3</title>
<polygon fill="none" stroke="black" points="1434.03,-824.85 1434.03,-839.76 1188.55,-850.3 841.39,-850.3 595.91,-839.76 595.91,-824.85 841.39,-814.3 1188.55,-814.3 1434.03,-824.85"/>
<text text-anchor="middle" x="1014.97" y="-828.6" font-family="Times,serif" font-size="14.00">[task] extract docker-rootless-extras-{{ docker_release }}.tgz into {{ docker_user_registered.home }}/bin</text>
</g>
<!-- Play #1: localhost (1)&#45;&gt;task_b4a76694&#45;6c0f&#45;4a1f&#45;b13b&#45;d1a0db02dda3 -->
<g id="edge_afe4ec55-661e-4cfa-8213-41bf81c30bbc" class="edge">
<title>Play #1: localhost (1)-&gt;task_b4a76694-6c0f-4a1f-b13b-d1a0db02dda3</title>
<path fill="none" stroke="#43013c" stroke-width="2" d="M244.46,-922.01C260.28,-907.04 284.87,-886.84 310.69,-877.3 469.99,-818.49 663.28,-810.22 806.88,-814.98"/>
<polygon fill="#43013c" stroke="#43013c" stroke-width="2" points="807.01,-818.48 817.13,-815.34 807.26,-811.49 807.01,-818.48"/>
<text text-anchor="middle" x="444.19" y="-881.1" font-family="Times,serif" font-size="14.00" fill="#43013c">19</text>
<links><link target="task_b4a76694-6c0f-4a1f-b13b-d1a0db02dda3"/></links></g>
<!-- task_202178c7&#45;a8e0&#45;4b0d&#45;a5a4&#45;8f76cc7b6b2d -->
<g id="task_202178c7-a8e0-4b0d-a5a4-8f76cc7b6b2d" class="node">
<title>task_202178c7-a8e0-4b0d-a5a4-8f76cc7b6b2d</title>
<polygon fill="none" stroke="black" points="1157.18,-770.85 1157.18,-785.76 1073.88,-796.3 956.07,-796.3 872.76,-785.76 872.76,-770.85 956.07,-760.3 1073.88,-760.3 1157.18,-770.85"/>
<text text-anchor="middle" x="1014.97" y="-774.6" font-family="Times,serif" font-size="14.00">[task] add docker systemd service</text>
</g>
<!-- Play #1: localhost (1)&#45;&gt;task_202178c7&#45;a8e0&#45;4b0d&#45;a5a4&#45;8f76cc7b6b2d -->
<g id="edge_76087622-732e-4d73-8a5f-8d684121e98f" class="edge">
<title>Play #1: localhost (1)-&gt;task_202178c7-a8e0-4b0d-a5a4-8f76cc7b6b2d</title>
<path fill="none" stroke="#43013c" stroke-width="2" d="M231.69,-921.9C241.21,-890.87 265.17,-828.92 310.69,-802.3 403.74,-747.9 702.63,-757.09 879.4,-768.06"/>
<polygon fill="#43013c" stroke="#43013c" stroke-width="2" points="879.35,-771.56 889.56,-768.7 879.8,-764.57 879.35,-771.56"/>
<text text-anchor="middle" x="444.19" y="-806.1" font-family="Times,serif" font-size="14.00" fill="#43013c">20</text>
<links><link target="task_202178c7-a8e0-4b0d-a5a4-8f76cc7b6b2d"/></links></g>
<!-- task_7363b408&#45;0ad3&#45;40c2&#45;a224&#45;a7eebd36d563 -->
<g id="task_7363b408-0ad3-40c2-a224-a7eebd36d563" class="node">
<title>task_7363b408-0ad3-40c2-a224-a7eebd36d563</title>
<polygon fill="none" stroke="black" points="1171.73,-716.85 1171.73,-731.76 1079.9,-742.3 950.04,-742.3 858.21,-731.76 858.21,-716.85 950.04,-706.3 1079.9,-706.3 1171.73,-716.85"/>
<text text-anchor="middle" x="1014.97" y="-720.6" font-family="Times,serif" font-size="14.00">[task] enable and start rootless docker</text>
</g>
<!-- Play #1: localhost (1)&#45;&gt;task_7363b408&#45;0ad3&#45;40c2&#45;a224&#45;a7eebd36d563 -->
<g id="edge_1367555b-0ad1-4d7c-8a3b-0c8a8c5fd80b" class="edge">
<title>Play #1: localhost (1)-&gt;task_7363b408-0ad3-40c2-a224-a7eebd36d563</title>
<path fill="none" stroke="#43013c" stroke-width="2" d="M228.06,-922.27C232.22,-881.72 248.54,-783.62 310.69,-741.3 353.92,-711.87 654.09,-714.21 848.06,-718.99"/>
<polygon fill="#43013c" stroke="#43013c" stroke-width="2" points="847.99,-722.49 858.08,-719.24 848.17,-715.49 847.99,-722.49"/>
<text text-anchor="middle" x="444.19" y="-745.1" font-family="Times,serif" font-size="14.00" fill="#43013c">21</text>
<links><link target="task_7363b408-0ad3-40c2-a224-a7eebd36d563"/></links></g>
<!-- task_162d6226&#45;15fb&#45;4ba6&#45;ba61&#45;4dfca6dfd288 -->
<g id="task_162d6226-15fb-4ba6-ba61-4dfca6dfd288" class="node">
<title>task_162d6226-15fb-4ba6-ba61-4dfca6dfd288</title>
<polygon fill="none" stroke="black" points="1164.66,-662.85 1164.66,-677.76 1076.97,-688.3 952.97,-688.3 865.28,-677.76 865.28,-662.85 952.97,-652.3 1076.97,-652.3 1164.66,-662.85"/>
<text text-anchor="middle" x="1014.97" y="-666.6" font-family="Times,serif" font-size="14.00">[task] write docker help instructions</text>
</g>
<!-- Play #1: localhost (1)&#45;&gt;task_162d6226&#45;15fb&#45;4ba6&#45;ba61&#45;4dfca6dfd288 -->
<g id="edge_a3e1c125-e34f-4db5-b96c-b1ffe48ea2ff" class="edge">
<title>Play #1: localhost (1)-&gt;task_162d6226-15fb-4ba6-ba61-4dfca6dfd288</title>
<path fill="none" stroke="#43013c" stroke-width="2" d="M226.61,-922.05C227.49,-875.45 237.01,-751.95 310.69,-697.3 398.48,-632.19 707.03,-644.9 884.92,-658.46"/>
<polygon fill="#43013c" stroke="#43013c" stroke-width="2" points="884.89,-661.97 895.13,-659.25 885.43,-654.99 884.89,-661.97"/>
<text text-anchor="middle" x="444.19" y="-701.1" font-family="Times,serif" font-size="14.00" fill="#43013c">22</text>
<links><link target="task_162d6226-15fb-4ba6-ba61-4dfca6dfd288"/></links></g>
<!-- task_b9304703&#45;c8de&#45;42f6&#45;8756&#45;e41f4737b6d1 -->
<g id="task_b9304703-c8de-42f6-8756-e41f4737b6d1" class="node">
<title>task_b9304703-c8de-42f6-8756-e41f4737b6d1</title>
<polygon fill="none" stroke="black" points="1134.66,-608.85 1134.66,-623.76 1064.55,-634.3 965.4,-634.3 895.28,-623.76 895.28,-608.85 965.4,-598.3 1064.55,-598.3 1134.66,-608.85"/>
<text text-anchor="middle" x="1014.97" y="-612.6" font-family="Times,serif" font-size="14.00">[task] create nginx directory</text>
</g>
<!-- Play #1: localhost (1)&#45;&gt;task_b9304703&#45;c8de&#45;42f6&#45;8756&#45;e41f4737b6d1 -->
<g id="edge_23175d58-48f1-4cb5-950b-dc84ac67da76" class="edge">
<title>Play #1: localhost (1)-&gt;task_b9304703-c8de-42f6-8756-e41f4737b6d1</title>
<path fill="none" stroke="#43013c" stroke-width="2" d="M228.75,-922.14C236.09,-861.16 263.03,-665.48 310.69,-628.3 354.68,-593.99 694.19,-602.55 884.93,-610.26"/>
<polygon fill="#43013c" stroke="#43013c" stroke-width="2" points="884.89,-613.76 895.02,-610.67 885.17,-606.77 884.89,-613.76"/>
<text text-anchor="middle" x="444.19" y="-632.1" font-family="Times,serif" font-size="14.00" fill="#43013c">23</text>
<links><link target="task_b9304703-c8de-42f6-8756-e41f4737b6d1"/></links></g>
<!-- task_33c37104&#45;1c38&#45;4582&#45;b304&#45;10a134fbc345 -->
<g id="task_33c37104-1c38-4582-b304-10a134fbc345" class="node">
<title>task_33c37104-1c38-4582-b304-10a134fbc345</title>
<polygon fill="none" stroke="black" points="1115.67,-554.85 1115.67,-569.76 1056.68,-580.3 973.26,-580.3 914.27,-569.76 914.27,-554.85 973.26,-544.3 1056.68,-544.3 1115.67,-554.85"/>
<text text-anchor="middle" x="1014.97" y="-558.6" font-family="Times,serif" font-size="14.00">[task] add nginx config</text>
</g>
<!-- Play #1: localhost (1)&#45;&gt;task_33c37104&#45;1c38&#45;4582&#45;b304&#45;10a134fbc345 -->
<g id="edge_9b95d030-2758-48db-a726-da76ffbf2ae9" class="edge">
<title>Play #1: localhost (1)-&gt;task_33c37104-1c38-4582-b304-10a134fbc345</title>
<path fill="none" stroke="#43013c" stroke-width="2" d="M228.15,-922C233.87,-855.46 257.09,-628.11 310.69,-584.3 355.39,-547.77 717.5,-553.2 903.92,-558.53"/>
<polygon fill="#43013c" stroke="#43013c" stroke-width="2" points="903.93,-562.03 914.03,-558.83 904.13,-555.04 903.93,-562.03"/>
<text text-anchor="middle" x="444.19" y="-588.1" font-family="Times,serif" font-size="14.00" fill="#43013c">24</text>
<links><link target="task_33c37104-1c38-4582-b304-10a134fbc345"/></links></g>
<!-- task_7ecec1e9&#45;0429&#45;48db&#45;a972&#45;2d07d48f13e8 -->
<g id="task_7ecec1e9-0429-48db-a972-2d07d48f13e8" class="node">
<title>task_7ecec1e9-0429-48db-a972-2d07d48f13e8</title>
<polygon fill="none" stroke="black" points="1176.17,-500.85 1176.17,-515.76 1081.74,-526.3 948.2,-526.3 853.77,-515.76 853.77,-500.85 948.2,-490.3 1081.74,-490.3 1176.17,-500.85"/>
<text text-anchor="middle" x="1014.97" y="-504.6" font-family="Times,serif" font-size="14.00">[task] add nginx default website config</text>
</g>
<!-- Play #1: localhost (1)&#45;&gt;task_7ecec1e9&#45;0429&#45;48db&#45;a972&#45;2d07d48f13e8 -->
<g id="edge_ba9ddae5-484f-4239-9929-a9c7011649cf" class="edge">
<title>Play #1: localhost (1)-&gt;task_7ecec1e9-0429-48db-a972-2d07d48f13e8</title>
<path fill="none" stroke="#43013c" stroke-width="2" d="M227.61,-922.1C231.66,-850.18 250.42,-587.35 310.69,-536.3 394.36,-465.43 706.4,-480.17 885.46,-495.32"/>
<polygon fill="#43013c" stroke="#43013c" stroke-width="2" points="885.21,-498.81 895.47,-496.18 885.81,-491.83 885.21,-498.81"/>
<text text-anchor="middle" x="444.19" y="-540.1" font-family="Times,serif" font-size="14.00" fill="#43013c">25</text>
<links><link target="task_7ecec1e9-0429-48db-a972-2d07d48f13e8"/></links></g>
<!-- task_75b7bfe7&#45;e54c&#45;4f6f&#45;a4c7&#45;2ab0e99fcb04 -->
<g id="task_75b7bfe7-e54c-4f6f-a4c7-2ab0e99fcb04" class="node">
<title>task_75b7bfe7-e54c-4f6f-a4c7-2ab0e99fcb04</title>
<polygon fill="none" stroke="black" points="1170.41,-446.85 1170.41,-461.76 1079.36,-472.3 950.58,-472.3 859.53,-461.76 859.53,-446.85 950.58,-436.3 1079.36,-436.3 1170.41,-446.85"/>
<text text-anchor="middle" x="1014.97" y="-450.6" font-family="Times,serif" font-size="14.00">[task] create webserver root directory</text>
</g>
<!-- Play #1: localhost (1)&#45;&gt;task_75b7bfe7&#45;e54c&#45;4f6f&#45;a4c7&#45;2ab0e99fcb04 -->
<g id="edge_661879aa-531b-47a5-a776-930bf3175a85" class="edge">
<title>Play #1: localhost (1)-&gt;task_75b7bfe7-e54c-4f6f-a4c7-2ab0e99fcb04</title>
<path fill="none" stroke="#43013c" stroke-width="2" d="M226.95,-922.18C228.53,-842.55 239.28,-525.09 310.69,-464.3 350.9,-430.07 657.91,-437.54 852.78,-445.98"/>
<polygon fill="#43013c" stroke="#43013c" stroke-width="2" points="852.7,-449.48 862.84,-446.42 853.01,-442.49 852.7,-449.48"/>
<text text-anchor="middle" x="444.19" y="-468.1" font-family="Times,serif" font-size="14.00" fill="#43013c">26</text>
<links><link target="task_75b7bfe7-e54c-4f6f-a4c7-2ab0e99fcb04"/></links></g>
<!-- task_21414b79&#45;740a&#45;48d8&#45;9c8e&#45;bd958b1ab6e1 -->
<g id="task_21414b79-740a-48d8-9c8e-bd958b1ab6e1" class="node">
<title>task_21414b79-740a-48d8-9c8e-bd958b1ab6e1</title>
<polygon fill="none" stroke="black" points="1143.95,-392.85 1143.95,-407.76 1068.4,-418.3 961.55,-418.3 885.99,-407.76 885.99,-392.85 961.55,-382.3 1068.4,-382.3 1143.95,-392.85"/>
<text text-anchor="middle" x="1014.97" y="-396.6" font-family="Times,serif" font-size="14.00">[task] create user log directory</text>
</g>
<!-- Play #1: localhost (1)&#45;&gt;task_21414b79&#45;740a&#45;48d8&#45;9c8e&#45;bd958b1ab6e1 -->
<g id="edge_2cc26332-8daa-4643-ad2c-980582783cd8" class="edge">
<title>Play #1: localhost (1)-&gt;task_21414b79-740a-48d8-9c8e-bd958b1ab6e1</title>
<path fill="none" stroke="#43013c" stroke-width="2" d="M226.67,-922.22C227.02,-838.2 233.13,-487.19 310.69,-419.3 352.06,-383.1 683.04,-388.42 875.85,-394.77"/>
<polygon fill="#43013c" stroke="#43013c" stroke-width="2" points="875.95,-398.27 886.07,-395.11 876.19,-391.27 875.95,-398.27"/>
<text text-anchor="middle" x="444.19" y="-423.1" font-family="Times,serif" font-size="14.00" fill="#43013c">27</text>
<links><link target="task_21414b79-740a-48d8-9c8e-bd958b1ab6e1"/></links></g>
<!-- task_291ccff1&#45;cbd1&#45;4bea&#45;b771&#45;6e17bdd0df6f -->
<g id="task_291ccff1-cbd1-4bea-b771-6e17bdd0df6f" class="node">
<title>task_291ccff1-cbd1-4bea-b771-6e17bdd0df6f</title>
<polygon fill="none" stroke="black" points="1143.95,-338.85 1143.95,-353.76 1068.4,-364.3 961.55,-364.3 885.99,-353.76 885.99,-338.85 961.55,-328.3 1068.4,-328.3 1143.95,-338.85"/>
<text text-anchor="middle" x="1014.97" y="-342.6" font-family="Times,serif" font-size="14.00">[task] verify running container</text>
</g>
<!-- Play #1: localhost (1)&#45;&gt;task_291ccff1&#45;cbd1&#45;4bea&#45;b771&#45;6e17bdd0df6f -->
<g id="edge_3c497d9a-3994-4792-88ac-eeccebda1bfd" class="edge">
<title>Play #1: localhost (1)-&gt;task_291ccff1-cbd1-4bea-b771-6e17bdd0df6f</title>
<path fill="none" stroke="#43013c" stroke-width="2" d="M226.42,-922.09C225.51,-833.25 226.5,-446.62 310.69,-371.3 351.67,-334.64 682.82,-337.18 875.75,-341.92"/>
<polygon fill="#43013c" stroke="#43013c" stroke-width="2" points="875.89,-345.42 885.97,-342.17 876.06,-338.42 875.89,-345.42"/>
<text text-anchor="middle" x="444.19" y="-375.1" font-family="Times,serif" font-size="14.00" fill="#43013c">28</text>
<links><link target="task_291ccff1-cbd1-4bea-b771-6e17bdd0df6f"/></links></g>
<!-- task_b3520cea&#45;26e4&#45;4ddd&#45;842a&#45;dc24a3e00e0f -->
<g id="task_b3520cea-26e4-4ddd-842a-dc24a3e00e0f" class="node">
<title>task_b3520cea-26e4-4ddd-842a-dc24a3e00e0f</title>
<polygon fill="none" stroke="black" points="1110.82,-284.85 1110.82,-299.76 1054.67,-310.3 975.27,-310.3 919.12,-299.76 919.12,-284.85 975.27,-274.3 1054.67,-274.3 1110.82,-284.85"/>
<text text-anchor="middle" x="1014.97" y="-288.6" font-family="Times,serif" font-size="14.00">[task] nginx container</text>
</g>
<!-- Play #1: localhost (1)&#45;&gt;task_b3520cea&#45;26e4&#45;4ddd&#45;842a&#45;dc24a3e00e0f -->
<g id="edge_d8331071-a90f-4112-abb5-a1c29a410ec3" class="edge">
<title>Play #1: localhost (1)-&gt;task_b3520cea-26e4-4ddd-842a-dc24a3e00e0f</title>
<path fill="none" stroke="#43013c" stroke-width="2" d="M227.78,-922.18C233.86,-824.43 264.83,-363.06 310.69,-321.3 397.24,-242.51 748.04,-265.4 919.17,-281.91"/>
<polygon fill="#43013c" stroke="#43013c" stroke-width="2" points="918.89,-285.4 929.18,-282.89 919.57,-278.43 918.89,-285.4"/>
<text text-anchor="middle" x="444.19" y="-325.1" font-family="Times,serif" font-size="14.00" fill="#43013c">29  [when: not nginx_container_running.exists]</text>
<links><link target="task_b3520cea-26e4-4ddd-842a-dc24a3e00e0f"/></links></g>
<!-- task_393ce511&#45;b45e&#45;4636&#45;b799&#45;d6a7ba4dda59 -->
<g id="task_393ce511-b45e-4636-b799-d6a7ba4dda59" class="node">
<title>task_393ce511-b45e-4636-b799-d6a7ba4dda59</title>
<polygon fill="none" stroke="black" points="1143.04,-230.85 1143.04,-245.76 1068.02,-256.3 961.92,-256.3 886.9,-245.76 886.9,-230.85 961.92,-220.3 1068.02,-220.3 1143.04,-230.85"/>
<text text-anchor="middle" x="1014.97" y="-234.6" font-family="Times,serif" font-size="14.00">[task] wait for nginx container</text>
</g>
<!-- Play #1: localhost (1)&#45;&gt;task_393ce511&#45;b45e&#45;4636&#45;b799&#45;d6a7ba4dda59 -->
<g id="edge_49d16633-802a-4e5d-80df-7ff7c3429ef4" class="edge">
<title>Play #1: localhost (1)-&gt;task_393ce511-b45e-4636-b799-d6a7ba4dda59</title>
<path fill="none" stroke="#43013c" stroke-width="2" d="M227.49,-922.07C232.27,-817.09 258.67,-292.94 310.69,-246.3 351.67,-209.57 683.68,-220.6 876.52,-230.35"/>
<polygon fill="#43013c" stroke="#43013c" stroke-width="2" points="876.57,-233.85 886.74,-230.87 876.93,-226.86 876.57,-233.85"/>
<text text-anchor="middle" x="444.19" y="-250.1" font-family="Times,serif" font-size="14.00" fill="#43013c">30</text>
<links><link target="task_393ce511-b45e-4636-b799-d6a7ba4dda59"/></links></g>
<!-- task_32fd0304&#45;00eb&#45;4481&#45;b6f4&#45;a709f4807212 -->
<g id="task_32fd0304-00eb-4481-b6f4-a709f4807212" class="node">
<title>task_32fd0304-00eb-4481-b6f4-a709f4807212</title>
<polygon fill="none" stroke="black" points="1172.64,-176.85 1172.64,-191.76 1080.28,-202.3 949.66,-202.3 857.31,-191.76 857.31,-176.85 949.66,-166.3 1080.28,-166.3 1172.64,-176.85"/>
<text text-anchor="middle" x="1014.97" y="-180.6" font-family="Times,serif" font-size="14.00">[task] get nginx container information</text>
</g>
<!-- Play #1: localhost (1)&#45;&gt;task_32fd0304&#45;00eb&#45;4481&#45;b6f4&#45;a709f4807212 -->
<g id="edge_07b88c86-34dc-4dcd-b321-d0f564142700" class="edge">
<title>Play #1: localhost (1)-&gt;task_32fd0304-00eb-4481-b6f4-a709f4807212</title>
<path fill="none" stroke="#43013c" stroke-width="2" d="M227.36,-921.98C231.55,-812.85 255.67,-251.63 310.69,-201.3 349.3,-165.98 651.46,-170.34 846.95,-177.07"/>
<polygon fill="#43013c" stroke="#43013c" stroke-width="2" points="846.94,-180.57 857.05,-177.43 847.18,-173.58 846.94,-180.57"/>
<text text-anchor="middle" x="444.19" y="-205.1" font-family="Times,serif" font-size="14.00" fill="#43013c">31</text>
<links><link target="task_32fd0304-00eb-4481-b6f4-a709f4807212"/></links></g>
<!-- task_3f8c3e55&#45;441a&#45;4b4b&#45;aef9&#45;b4efa0a148a8 -->
<g id="task_3f8c3e55-441a-4b4b-aef9-b4efa0a148a8" class="node">
<title>task_3f8c3e55-441a-4b4b-aef9-b4efa0a148a8</title>
<polygon fill="none" stroke="black" points="1143.04,-122.85 1143.04,-137.76 1068.02,-148.3 961.92,-148.3 886.9,-137.76 886.9,-122.85 961.92,-112.3 1068.02,-112.3 1143.04,-122.85"/>
<text text-anchor="middle" x="1014.97" y="-126.6" font-family="Times,serif" font-size="14.00">[task] add skeleton index.html</text>
</g>
<!-- Play #1: localhost (1)&#45;&gt;task_3f8c3e55&#45;441a&#45;4b4b&#45;aef9&#45;b4efa0a148a8 -->
<g id="edge_3d0d748a-9ffc-4536-a33c-63c9f1c822ea" class="edge">
<title>Play #1: localhost (1)-&gt;task_3f8c3e55-441a-4b4b-aef9-b4efa0a148a8</title>
<path fill="none" stroke="#43013c" stroke-width="2" d="M227.23,-922.28C230.75,-809.83 252.3,-207.55 310.69,-153.3 351.03,-115.83 683.31,-119.73 876.36,-125.31"/>
<polygon fill="#43013c" stroke="#43013c" stroke-width="2" points="876.48,-128.82 886.58,-125.62 876.69,-121.82 876.48,-128.82"/>
<text text-anchor="middle" x="444.19" y="-157.1" font-family="Times,serif" font-size="14.00" fill="#43013c">32</text>
<links><link target="task_3f8c3e55-441a-4b4b-aef9-b4efa0a148a8"/></links></g>
<!-- task_92750092&#45;1603&#45;41a6&#45;97ba&#45;b26ff4c62e8d -->
<g id="task_92750092-1603-41a6-97ba-b26ff4c62e8d" class="node">
<title>task_92750092-1603-41a6-97ba-b26ff4c62e8d</title>
<polygon fill="none" stroke="black" points="1164.66,-68.85 1164.66,-83.76 1076.97,-94.3 952.97,-94.3 865.28,-83.76 865.28,-68.85 952.97,-58.3 1076.97,-58.3 1164.66,-68.85"/>
<text text-anchor="middle" x="1014.97" y="-72.6" font-family="Times,serif" font-size="14.00">[task] write docker help instructions</text>
</g>
<!-- Play #1: localhost (1)&#45;&gt;task_92750092&#45;1603&#45;41a6&#45;97ba&#45;b26ff4c62e8d -->
<g id="edge_52fd5b21-b3dd-49e7-86c2-e9e670b8ead9" class="edge">
<title>Play #1: localhost (1)-&gt;task_92750092-1603-41a6-97ba-b26ff4c62e8d</title>
<path fill="none" stroke="#43013c" stroke-width="2" d="M227.11,-922.29C230.01,-805.75 248.78,-161.51 310.69,-103.3 488.08,63.47 815.41,-13.02 951.79,-55.12"/>
<polygon fill="#43013c" stroke="#43013c" stroke-width="2" points="951.08,-58.56 961.66,-58.21 953.17,-51.88 951.08,-58.56"/>
<text text-anchor="middle" x="444.19" y="-107.1" font-family="Times,serif" font-size="14.00" fill="#43013c">33</text>
<links><link target="task_92750092-1603-41a6-97ba-b26ff4c62e8d"/></links></g>
</g>
</svg>